<svg width="1368" height="660" fill="none" xmlns="http://www.w3.org/2000/svg"><path opacity=".2" fill-rule="evenodd" clip-rule="evenodd" d="M0 660s337.005-166.407 650.003-95.741C963.002 634.925 1368 557.42 1368 557.42V0H0v660z" fill="url(#paint0_radial)"/><mask id="a" maskUnits="userSpaceOnUse" x="0" y="0" width="1368" height="660"><path fill-rule="evenodd" clip-rule="evenodd" d="M0 660s337.005-166.407 650.003-95.741C963.002 634.925 1368 557.42 1368 557.42V0H0v660z" fill="#fff"/></mask><g mask="url(#a)" fill-rule="evenodd" clip-rule="evenodd" fill="#fff"><path opacity=".4" d="M506.5 594c380.248 0 688.5-154.014 688.5-344S886.748-94 506.5-94-182 60.014-182 250s308.252 344 688.5 344z"/><path opacity=".4" d="M282.5 594C662.748 594 971 450.955 971 274.5S662.748-45 282.5-45-406 98.045-406 274.5-97.748 594 282.5 594z"/></g><defs><radialGradient id="paint0_radial" cx="0" cy="0" r="1" gradientUnits="userSpaceOnUse" gradientTransform="rotate(-153.624 761.328 169.72) scale(1526.96 994.068)"><stop stop-color="#024BFD"/><stop offset="1" stop-color="#0094FF"/></radialGradient></defs></svg>